<svg width="26" height="25" viewBox="0 0 26 25" fill="none" xmlns="http://www.w3.org/2000/svg">
<path d="M0 2C0 0.895432 0.776001 0 1.73333 0H24.2667C25.224 0 26 0.895432 26 2V3C26 4.10457 25.224 5 24.2667 5H1.73333C0.776001 5 0 4.10457 0 3V2Z" fill="black"/>
<path d="M0 12C0 10.8954 0.776001 10 1.73333 10H24.2667C25.224 10 26 10.8954 26 12V13C26 14.1046 25.224 15 24.2667 15H1.73333C0.776001 15 0 14.1046 0 13V12Z" fill="black"/>
<path d="M1.73333 20C0.776001 20 0 20.8954 0 22V23C0 24.1046 0.776001 25 1.73333 25H24.2667C25.224 25 26 24.1046 26 23V22C26 20.8954 25.224 20 24.2667 20H1.73333Z" fill="black"/>
</svg>
